<svg width="24" height="20" viewBox="0 0 24 20" fill="none" xmlns="http://www.w3.org/2000/svg">
<path d="M20.7072 12.7035C20.592 11.9031 19.974 11.2791 19.1784 11.0931C16.086 10.3683 15.3108 8.5875 15.18 6.6123C14.6316 6.5103 13.656 6.3999 12 6.3999C10.344 6.3999 9.36843 6.5103 8.82003 6.6123C8.68923 8.5875 7.91403 10.3683 4.82163 11.0931C4.02603 11.2803 3.40803 11.9031 3.29283 12.7035L2.69643 16.8339C2.48643 18.2883 3.55443 19.5999 5.04003 19.5999H18.96C20.4444 19.5999 21.5136 18.2883 21.3036 16.8339L20.7072 12.7035ZM12 16.5903C10.326 16.5903 8.96883 15.2463 8.96883 13.5903C8.96883 11.9343 10.326 10.5903 12 10.5903C13.674 10.5903 15.0312 11.9343 15.0312 13.5903C15.0312 15.2463 13.6728 16.5903 12 16.5903ZM23.94 5.1999C23.9112 3.3999 19.3296 0.401102 12 0.399902C4.66923 0.401102 0.0876344 3.3999 0.0600344 5.1999C0.0324344 6.9999 0.0852345 9.3423 3.10203 8.9523C6.63123 8.4951 6.41403 7.2627 6.41403 5.5011C6.41403 4.2723 9.28443 3.9759 12 3.9759C14.7156 3.9759 17.5848 4.2723 17.586 5.5011C17.586 7.2627 17.3688 8.4951 20.898 8.9523C23.9136 9.3423 23.9676 6.9999 23.94 5.1999Z" fill="white"/>
</svg>
