<svg width="15" height="20" viewBox="0 0 15 20" fill="none" xmlns="http://www.w3.org/2000/svg">
<path d="M2.77204 0.439054L3.84904 0.0950539C4.85704 -0.226946 5.93504 0.294054 6.36704 1.31205L7.22704 3.34005C7.60204 4.22305 7.39404 5.26205 6.71304 5.90805L4.82004 7.70605C4.93671 8.78205 5.29804 9.84105 5.90404 10.8831C6.48031 11.8909 7.25248 12.7732 8.17504 13.4781L10.451 12.7181C11.313 12.4311 12.252 12.7621 12.781 13.5391L14.013 15.3491C14.629 16.2531 14.518 17.4991 13.755 18.2651L12.937 19.0861C12.123 19.9031 10.961 20.2001 9.88504 19.8641C7.34637 19.0721 5.01204 16.7211 2.88204 12.8111C0.749374 8.89439 -0.0032928 5.57172 0.624041 2.84305C0.888041 1.69505 1.70604 0.780054 2.77404 0.439054" fill="white"/>
</svg>
